<?xml version="1.0" encoding="utf-8"?>
<!-- Generator: Adobe Illustrator 22.1.0, SVG Export Plug-In . SVG Version: 6.00 Build 0)  -->
<svg version="1.1" id="Layer_1" xmlns="http://www.w3.org/2000/svg" xmlns:xlink="http://www.w3.org/1999/xlink" x="0px" y="0px"
	 viewBox="0 0 1568.2 1303.8" style="enable-background:new 0 0 1568.2 1303.8;" xml:space="preserve">
<style type="text/css">
	.st0{fill:#7F8C8D;}
	.st1{fill:#1ABC9C;}
	.st2{fill:#0F0D0E;}
	.st3{font-family:'Roboto-Thin';}
	.st4{font-size:299.4031px;}
	.st5{letter-spacing:-9;}
	.st6{font-size:258px;}
	.st7{letter-spacing:-8;}
</style>
<path class="st0" d="M1000.5,638.9c1.2-0.1,28.9-1.4,63.1-9.5c46.4-11,80.7-28.4,101.8-51.7l-8.9-8.1
	c-46.6,51.5-155.5,57.2-156.5,57.2L1000.5,638.9z"/>
<path class="st0" d="M1030.5,540.2c63.5-11.8,92.8-50.8,106.2-81.3c14.4-32.9,13.8-62.6,13.8-63.9l-12,0.3c0,0.3,0.5,28.7-12.9,59.2
	c-17.8,40.3-50.5,65.2-97.2,73.9L1030.5,540.2z"/>
<path class="st0" d="M639.6,638.9c-1.2-0.1-28.9-1.4-63.1-9.5c-46.4-11-80.7-28.4-101.8-51.7l8.9-8.1
	c46.6,51.5,155.5,57.2,156.5,57.2L639.6,638.9z"/>
<path class="st0" d="M609.6,540.2c-63.5-11.8-92.8-50.8-106.2-81.3c-14.4-32.9-13.8-62.6-13.8-63.9l12,0.3c0,0.3-0.5,28.7,12.9,59.2
	c17.8,40.3,50.5,65.2,97.2,73.9L609.6,540.2z"/>
<path d="M818,0C535.2,0,306,229.1,306,512c0,226.6,146.6,417.9,350.1,485.8c25.6,4.5,35.2-10.9,35.2-24.3c0-12.2-0.6-52.5-0.6-95.4
	c-128.6,23.7-161.9-31.4-172.2-60.2c-5.8-14.7-30.7-60.2-52.5-72.3c-17.9-9.6-43.5-33.3-0.6-33.9c40.3-0.6,69.1,37.1,78.7,52.5
	c46.1,77.4,119.7,55.7,149.1,42.2c4.5-33.3,17.9-55.7,32.6-68.5c-113.9-12.8-233-57-233-252.8c0-55.7,19.8-101.8,52.5-137.6
	c-5.1-12.8-23-65.3,5.1-135.7c0,0,42.9-13.4,140.8,52.5c41-11.5,84.5-17.3,128-17.3c43.5,0,87,5.8,128,17.3
	c97.9-66.6,140.8-52.5,140.8-52.5c28.2,70.4,10.2,122.9,5.1,135.7c32.6,35.8,52.5,81.3,52.5,137.6c0,196.5-119.7,240-233.6,252.8
	c18.6,16,34.6,46.7,34.6,94.7c0,68.5-0.6,123.5-0.6,140.8c0,13.4,9.6,29.4,35.2,24.3C1183.5,929.9,1330,737.9,1330,512
	C1330,229.1,1100.9,0,818,0z"/>
<g>
	<path class="st1" d="M1009.1,659.3c-125.4,31.2-254,31.2-379.4,0c-5.7-1.5-10.9-7.1-11.7-12.5c-6.6-44.3-13.1-88.7-19.7-133
		c-0.8-5.4,3.7-8.4,10-6.7c139.4,34.8,282.8,34.8,422.2,0c6.3-1.6,10.8,1.3,10,6.7c-6.6,44.3-13.1,88.7-19.7,133
		C1020,652.2,1014.8,657.8,1009.1,659.3z"/>
</g>
<g>
	<path class="st2" d="M152.5,1181.2H86c-1.7,0-3.1,1.4-3.1,3.1v32.5c0,1.7,1.4,3.1,3.1,3.1h26v40.4c0,0-5.8,2-21.9,2
		c-19,0-45.6-6.9-45.6-65.4c0-58.4,27.7-66.1,53.6-66.1c22.5,0,32.2,4,38.3,5.9c1.9,0.6,3.7-1.3,3.7-3.1l7.4-31.4
		c0-0.8-0.3-1.8-1.2-2.4c-2.5-1.8-17.8-10.3-56.3-10.3c-44.4,0-90,18.9-90,109.8c0,90.9,52.2,104.4,96.1,104.4
		c36.4,0,58.5-15.6,58.5-15.6c0.9-0.5,1-1.8,1-2.4v-101.5C155.6,1182.6,154.3,1181.2,152.5,1181.2z"/>
	<path class="st2" d="M495.5,1100.5c0-1.7-1.4-3.1-3.1-3.1H455c-1.7,0-3.1,1.4-3.1,3.1c0,0,0,72.4,0,72.4h-58.4v-72.4
		c0-1.7-1.4-3.1-3.1-3.1h-37.5c-1.7,0-3.1,1.4-3.1,3.1v196.1c0,1.7,1.4,3.1,3.1,3.1h37.5c1.7,0,3.1-1.4,3.1-3.1v-83.9h58.4
		c0,0-0.1,83.9-0.1,83.9c0,1.7,1.4,3.1,3.1,3.1h37.6c1.7,0,3.1-1.4,3.1-3.1V1100.5z"/>
	<g>
		<g>
			<path class="st2" d="M223.2,1126.2c0-13.5-10.8-24.4-24.2-24.4c-13.3,0-24.2,10.9-24.2,24.4c0,13.5,10.8,24.4,24.2,24.4
				C212.4,1150.6,223.2,1139.7,223.2,1126.2z"/>
			<path class="st2" d="M220.6,1255.2c0-5,0-90.5,0-90.5c0-1.7-1.4-3.1-3.1-3.1h-37.4c-1.7,0-3.2,1.8-3.2,3.5c0,0,0,108.9,0,129.7
				c0,3.8,2.4,4.9,5.4,4.9c0,0,15.9,0,33.7,0c3.7,0,4.6-1.8,4.6-5C220.6,1287.7,220.6,1260.5,220.6,1255.2z"/>
		</g>
	</g>
	<path class="st2" d="M637.9,1161.8h-37.2c-1.7,0-3.1,1.4-3.1,3.1v96.1c0,0-9.4,6.9-22.9,6.9c-13.4,0-17-6.1-17-19.2
		c0-13.1,0-83.8,0-83.8c0-1.7-1.4-3.1-3.1-3.1H517c-1.7,0-3.1,1.4-3.1,3.1c0,0,0,51.2,0,90.2c0,39,21.7,48.5,51.6,48.5
		c24.5,0,44.3-13.6,44.3-13.6s0.9,7.1,1.4,8c0.4,0.8,1.5,1.7,2.7,1.7l24-0.1c1.7,0,3.1-1.4,3.1-3.1l0-131.6
		C641,1163.3,639.6,1161.8,637.9,1161.8z"/>
	<path class="st2" d="M739.6,1157.4c-21.1,0-35.5,9.4-35.5,9.4v-66.4c0-1.7-1.4-3.1-3.1-3.1h-37.6c-1.7,0-3.1,1.4-3.1,3.1v196.1
		c0,1.7,1.4,3.1,3.1,3.1c0,0,26.1,0,26.1,0c1.2,0,2.1-0.6,2.7-1.7c0.6-1.1,1.6-9,1.6-9s15.4,14.6,44.5,14.6
		c34.1,0,53.7-17.3,53.7-77.8C792,1165.3,760.7,1157.4,739.6,1157.4z M724.9,1267.9c-12.9-0.4-21.6-6.2-21.6-6.2v-62.1
		c0,0,8.6-5.3,19.2-6.2c13.4-1.2,26.3,2.8,26.3,34.8C748.8,1261.8,742.9,1268.5,724.9,1267.9z"/>
	<path class="st2" d="M328.3,1161.5h-28.1c0,0,0-37.1,0-37.1c0-1.4-0.7-2.1-2.3-2.1h-38.3c-1.5,0-2.3,0.7-2.3,2.1v38.4
		c0,0-19.2,4.6-20.5,5c-1.3,0.4-2.2,1.6-2.2,3v24.1c0,1.7,1.4,3.1,3.1,3.1h19.6c0,0,0,25.2,0,58c0,43.1,30.2,47.3,50.6,47.3
		c9.3,0,20.5-3,22.3-3.7c1.1-0.4,1.8-1.6,1.8-2.8l0-26.5c0-1.7-1.5-3.1-3.1-3.1c-1.6,0-5.8,0.7-10.1,0.7c-13.8,0-18.5-6.4-18.5-14.7
		c0-8.3,0-55.1,0-55.1h28.1c1.7,0,3.1-1.4,3.1-3.1v-30.2C331.4,1162.9,330,1161.5,328.3,1161.5z"/>
</g>
<text transform="matrix(1 0 0 1 810.2741 1299.6581)"><tspan x="0" y="0" class="st3 st4 st5">D</tspan><tspan x="190.4" y="0" class="st3 st6 st7">octor</tspan></text>
</svg>
