<?xml version="1.0" encoding="utf-8"?>
<!-- Generator: Adobe Illustrator 22.1.0, SVG Export Plug-In . SVG Version: 6.00 Build 0)  -->
<svg version="1.1" id="Layer_1" xmlns="http://www.w3.org/2000/svg" xmlns:xlink="http://www.w3.org/1999/xlink" x="0px" y="0px"
	 viewBox="0 0 5495.9 1269.7" style="enable-background:new 0 0 5495.9 1269.7;" xml:space="preserve">
<style type="text/css">
	.st0{fill:#20313F;}
	.st1{fill:#34495E;}
	.st2{fill:#27AE60;}
</style>
<g>
	<path class="st0" d="M1858,438.9h-152.8V853h-62.7V438.9h-150.9v-49.3H1858V438.9z"/>
	<path class="st0" d="M2004.9,859.7c-49.4,0-88-15.8-115.7-47.4c-27.7-31.6-41.5-73.2-41.5-124.8v-14c0-49.4,14.3-90.3,42.8-122.7
		c28.5-32.4,63.4-48.5,104.6-48.5c46,0,80.6,14.3,103.6,43c23,28.6,34.5,66.7,34.5,114.3v33.1h-220.3l-1,1.6
		c0,34.6,7.6,62.7,22.9,84.2c15.3,21.5,38.6,32.3,70,32.3c21.2,0,39.8-3,55.9-9.1c16-6,29.8-14.4,41.2-25l24.5,40.7
		c-12.3,11.9-28.5,21.9-48.7,30.1C2057.6,855.6,2033.3,859.7,2004.9,859.7z M1995,551.6c-21.9,0-39.9,8.4-54.3,25.3
		c-14.3,16.9-23.1,38.5-26.3,64.8l0.6,1.6h155.3v-5.1c0-25-6.2-45.7-18.5-62.1C2039.7,559.7,2020.7,551.6,1995,551.6z"/>
	<path class="st0" d="M2318.9,810.6c19.3,0,36.2-6.4,50.6-19.3c14.4-12.8,21.6-28.6,21.6-47.3h56.7l1,1.9
		c0.8,29.7-11.9,56.1-38.2,79.1c-26.3,23-56.9,34.5-91.7,34.5c-48.4,0-85.7-16.4-112-49.3c-26.3-32.9-39.5-73.8-39.5-122.9v-13.4
		c0-48.6,13.2-89.4,39.6-122.4c26.4-33,63.7-49.5,111.9-49.5c38.4,0,69.9,11.9,94.4,35.6c24.5,23.8,36.3,52.9,35.5,87.5l-0.6,1.9
		h-57c0-21-6.8-38.9-20.5-53.6c-13.7-14.7-30.9-22.1-51.7-22.1c-30.8,0-53.2,11.9-67.3,35.8c-14.1,23.9-21.2,52.8-21.2,86.7v13.4
		c0,34.6,6.9,63.8,20.8,87.5C2265.1,798.8,2287.7,810.6,2318.9,810.6z"/>
	<path class="st0" d="M2564.4,554.7c11.9-16.6,26.5-29.4,43.8-38.7c17.3-9.2,36.4-13.8,57.5-13.8c36.7,0,65.3,11,85.8,33.1
		c20.5,22.1,30.7,56,30.7,101.9V853h-62.7V636.5c0-28.4-6.1-49.4-18.3-63c-12.2-13.6-30.4-20.4-54.6-20.4c-18.7,0-34.9,3.7-48.7,11
		c-13.8,7.3-24.9,17.6-33.4,30.7V853h-62.7V356.4h62.7V554.7z"/>
	<path class="st0" d="M2906.7,508.6l4.5,51.2c11.5-18.2,25.8-32.4,43.1-42.5c17.3-10.1,37-15.1,59-15.1c37.1,0,65.9,10.9,86.3,32.6
		c20.4,21.8,30.6,55.3,30.6,100.7V853h-62.7V636.9c0-30.3-6-51.9-18-64.6c-12-12.7-30.3-19.1-54.9-19.1c-19.3,0-35.7,3.9-49.2,11.6
		c-13.5,7.7-24.1,18.6-32,32.6V853h-62.7V508.6H2906.7z"/>
	<path class="st0" d="M3185,677.6c0-50.9,13.8-92.9,41.4-125.9c27.6-33,65-49.5,112.4-49.5c47.7,0,85.5,16.4,113.2,49.3
		c27.7,32.9,41.5,74.9,41.5,126v7c0,51.4-13.8,93.4-41.4,126c-27.6,32.7-65.1,49-112.7,49c-47.5,0-85.1-16.4-112.8-49.2
		c-27.7-32.8-41.5-74.7-41.5-125.9V677.6z M3247.7,684.6c0,36.5,7.7,66.6,23.1,90.4c15.4,23.8,38.2,35.6,68.6,35.6
		c29.9,0,52.6-11.9,68.1-35.6c15.5-23.8,23.2-53.9,23.2-90.4v-7c0-36.1-7.8-66.1-23.4-90.1c-15.6-24-38.5-36-68.6-36
		c-29.9,0-52.6,12-68,36c-15.4,24-23.1,54-23.1,90.1V684.6z"/>
	<path class="st0" d="M3891.7,790.6c-10.2,16.8-29,32.5-56.5,47.1c-27.5,14.6-62.1,22-103.9,22c-53.3,0-96.9-18.4-130.8-55.1
		c-34-36.7-50.9-84.2-50.9-142.6v-85c0-57.3,16.4-104,49.3-140c32.9-36.1,75.4-54.1,127.6-54.1c50.3,0,90.2,13.3,119.8,39.8
		c29.6,26.5,44,60.3,43.1,101.2l-1,1.9h-35c0-32-11-58.5-33.1-79.3c-22.1-20.8-53.4-31.2-93.9-31.2c-41.6,0-75.1,15.1-100.6,45.2
		c-25.5,30.1-38.2,68.8-38.2,115.9V662c0,48.4,13.3,88.1,39.8,119c26.5,31,61.1,46.5,103.8,46.5c32.5,0,59-4.9,79.6-14.6
		c20.6-9.8,34.9-21.1,43-34.1V660.1h-124.8v-32.5h162.6V790.6z"/>
	<path class="st0" d="M4137.9,541.4l-27.1-1.9c-24,0-43.7,6.7-59,20.2c-15.4,13.5-26.4,32-32.9,55.5V853h-38.2V508.6h33.4l4.8,57.3
		v3.8c10-21.2,23.3-37.8,40.1-49.7c16.8-11.9,36.7-17.8,59.8-17.8c4.7,0,9.1,0.4,13.4,1.1c4.2,0.7,7.7,1.5,10.5,2.4L4137.9,541.4z"
		/>
	<path class="st0" d="M4399.7,853c-2.3-12.1-4.1-22.5-5.3-31.2c-1.2-8.7-1.8-17.6-1.8-26.7c-11.9,18.7-28.5,34.1-50,46.3
		c-21.4,12.2-46,18.3-73.8,18.3c-33.7,0-59.9-9-78.5-26.9c-18.6-17.9-27.9-42.3-27.9-73c0-30.8,13.5-55.7,40.4-74.8
		c26.9-19.1,62-28.6,105-28.6h84.7v-42.7c0-24.6-7.8-43.9-23.4-57.9c-15.6-14-37.6-21-66-21c-26.1,0-47.2,6.4-63.2,19.1
		c-16,12.7-24,28.8-24,48.1h-35.3l-0.6-1.9c-1.3-25.9,9.8-48.6,33.3-68.3c23.4-19.6,54.1-29.4,91.8-29.4c37.8,0,68.1,9.7,91,29
		c22.9,19.3,34.4,47,34.4,83.1v169.3c0,12.1,0.7,23.9,2.1,35.3c1.4,11.5,3.7,22.8,6.8,34.1H4399.7z M4273,825.9
		c29.3,0,54.6-6.9,76.1-20.8c21.4-13.9,36-31.8,43.6-53.6v-65.9h-85c-31,0-56.6,7.4-76.7,22.1c-20.2,14.8-30.2,32.5-30.2,53.3
		c0,19.5,6.4,35.2,19.3,47.1C4232.8,820,4250.5,825.9,4273,825.9z"/>
	<path class="st0" d="M4787.8,690.3c0,51.6-11.7,92.7-35,123.3c-23.3,30.7-55.5,46-96.4,46c-24,0-45-4.6-63.2-13.7
		c-18.1-9.1-32.9-22.1-44.4-38.8v178.2h-38.2V508.6h29.3l7,53.8c11.5-19.1,26.3-33.9,44.6-44.4c18.2-10.5,39.7-15.8,64.3-15.8
		c41.4,0,73.7,16.5,97.1,49.5c23.3,33,35,77,35,131.9V690.3z M4749.6,683.6c0-43.7-8.7-79.4-26.1-106.9
		c-17.4-27.6-42.9-41.4-76.4-41.4c-25.3,0-45.9,6-61.9,18.1c-16,12.1-28.2,27.8-36.4,47.1v166.8c8.9,18.7,21.5,33.4,37.9,44.1
		c16.3,10.7,36.7,16.1,61.1,16.1c33.3,0,58.6-12.5,75.9-37.6c17.3-25,25.9-58.2,25.9-99.6V683.6z"/>
	<path class="st0" d="M4890.1,567.2c11.7-20.6,27-36.5,46-47.9c19-11.3,41.2-17,66.7-17c36.3,0,64.1,11.2,83.6,33.7
		c19.4,22.5,29.1,57.4,29.1,104.7V853h-38.2V640c0-37.3-7.4-64.1-22.1-80.4c-14.7-16.2-35.1-24.3-61-24.3c-26.7,0-48.8,6.5-66,19.6
		c-17.3,13.1-30,30.5-38,52.4V853h-38.2V356.4h38.2V567.2z"/>
	<path class="st0" d="M5290.9,759.7l12.1,41.1h1.9L5409,508.6h42.7L5302.1,908c-8.9,23.3-20.5,43.2-34.7,59.5
		c-14.2,16.3-35,24.5-62.4,24.5c-4.5,0-9.9-0.5-16.2-1.4s-11-2-14-3l4.5-31.8c2.5,0.4,6.6,0.9,12.3,1.4c5.6,0.5,9.7,0.8,12.3,0.8
		c16.5,0,29.8-5.9,39.8-17.7c10-11.8,18.5-26.9,25.5-45.4l18.1-46.5l-133-339.9h42.3L5290.9,759.7z"/>
</g>
<g>
	<path class="st0" d="M1266.7,608.5c-3.7-70.4-19.4-138.9-46.8-203.7c-30.6-72.3-74.3-137.2-130-192.9
		c-55.7-55.7-120.6-99.5-192.9-130c-74.8-31.6-154.3-47.7-236.2-47.7c-81.9,0-161.4,16-236.2,47.7c-72.3,30.6-137.2,74.3-192.9,130
		c-10.1,10.1-20,20.8-29.4,31.6c-3.3,3.8-5,9-4.5,14c0.5,5.1,3,9.6,7,12.8l0.1,0.1c7.8,6.1,19,5,25.5-2.5
		c8.8-10.2,18.1-20.2,27.7-29.7c52.3-52.3,113.2-93.4,181.1-122.1c70.2-29.7,144.8-44.8,221.7-44.8s151.5,15.1,221.7,44.8
		c67.8,28.7,128.8,69.8,181.1,122.1c52.3,52.3,93.4,113.3,122.1,181.1c25.7,60.8,40.5,125.1,44,191.2c0.5,9.9,8.7,17.7,18.6,17.7
		c5.1,0,9.9-2.1,13.5-5.8C1265.1,618.6,1266.9,613.6,1266.7,608.5z"/>
	<path class="st0" d="M1124.1,1003L1124.1,1003c-7.9-6.2-19.2-5-25.7,2.8c-11,13.1-22.7,25.9-34.8,38.1
		c-52.3,52.3-113.3,93.4-181.1,122.1c-70.2,29.7-144.8,44.8-221.7,44.8s-151.5-15.1-221.7-44.8c-67.8-28.7-128.8-69.8-181.1-122.1
		c-52.3-52.3-93.4-113.3-122.1-181.1c-27.5-65.1-42.5-134.1-44.5-205.2c-0.3-10.2-8.4-18.1-18.6-18.1c-5.1,0-9.8,2-13.3,5.6
		c-3.5,3.6-5.4,8.4-5.2,13.4c2.1,75.7,18.1,149.3,47.4,218.7c30.6,72.3,74.3,137.2,130,192.9c55.7,55.7,120.6,99.5,192.9,130
		c74.8,31.6,154.3,47.7,236.2,47.7c81.9,0,161.4-16,236.2-47.7c72.3-30.6,137.2-74.3,192.9-130c12.9-12.9,25.4-26.6,37.1-40.6
		c3.2-3.9,4.7-8.8,4.2-13.8C1130.6,1010.6,1128.1,1006.1,1124.1,1003z"/>
</g>
<g>
	<path class="st1" d="M319.3,303.9c46.1-46.1,99.8-81.8,159.7-106.1c57.9-23.5,119-35.4,181.7-35.4s123.9,11.9,181.7,35.4
		c51.8,21,99.2,50.7,140.9,88.2c7.5,6.7,18.7,6.6,26-0.2l0.5-0.5c3.7-3.7,5.8-8.9,5.6-14.1c-0.1-5.2-2.4-10.2-6.3-13.7
		c-45-40.6-96.3-72.6-152.3-95.4C794.5,136.9,728.5,124,660.8,124c0,0,0,0,0,0c-67.7,0-133.7,12.8-196.2,38.2
		c-64.7,26.2-122.7,64.8-172.5,114.5c-49.8,49.8-88.3,107.8-114.5,172.5c-25.3,62.5-38.2,128.5-38.2,196.2c0,12.4,0.4,24.9,1.3,37.2
		c0.4,5.2,2.9,10.1,6.9,13.4c3.5,2.8,7.8,4.4,12.3,4.4c0.6,0,1.2,0,1.7-0.1l0.6-0.1c10.2-1.2,17.6-10.2,16.8-20.5
		c-0.8-11.4-1.2-23-1.2-34.4c0-62.7,11.9-123.9,35.4-181.7C237.5,403.8,273.2,350,319.3,303.9z"/>
	<path class="st1" d="M1180,588.1c-0.5-5.2-3-9.9-7-13.2c-4-3.3-9.1-4.7-14.3-4.2l-0.2,0c-10.4,1.3-17.7,10.4-16.8,20.8
		c1.3,14.4,2,29.1,2,43.7c0,62.7-11.9,123.9-35.4,181.7c-24.3,59.9-60,113.6-106.1,159.7c-46.1,46.1-99.8,81.8-159.7,106.1
		c-57.9,23.5-119,35.4-181.7,35.4c-62.7,0-123.9-11.9-181.7-35.4c-55.5-22.5-105.9-54.9-149.7-96.3c-7.6-7.2-19.4-7.1-26.8,0.4
		c-3.7,3.7-5.7,8.6-5.6,13.9c0.1,5.2,2.2,10.1,6,13.7c47.3,44.7,101.7,79.7,161.7,104c62.5,25.3,128.5,38.2,196.2,38.2c0,0,0,0,0,0
		c67.7,0,133.7-12.8,196.2-38.2c64.7-26.2,122.7-64.8,172.5-114.5c49.8-49.8,88.3-107.8,114.5-172.5
		c25.3-62.5,38.2-128.5,38.2-196.2C1182.1,619.6,1181.4,603.7,1180,588.1z"/>
</g>
<g>
	<path class="st0" d="M1073.8,616.1c-2.5-48-13.3-94.7-31.9-138.9c-20.8-49.3-50.7-93.5-88.6-131.5c-38-38-82.2-67.8-131.5-88.6
		c-51-21.6-105.2-32.5-161-32.5c-55.8,0-110,10.9-161,32.5c-49.3,20.8-93.5,50.7-131.5,88.6c-6.9,6.9-13.7,14.2-20.1,21.6
		c-3.4,3.9-5,9.1-4.5,14.2c0.5,4.9,2.9,9.5,6.6,12.6l0.6,0.5c7.9,6.2,19.3,5.1,26-2.5c5.8-6.7,12-13.3,18.3-19.6
		c34.5-34.5,74.7-61.6,119.4-80.5c46.3-19.6,95.5-29.5,146.3-29.5c50.7,0,99.9,9.9,146.3,29.5c44.7,18.9,84.9,46,119.4,80.5
		C961,407,988.1,447.2,1007,492c17,40.1,26.7,82.5,29,126.1c0.5,10.1,8.8,18,18.9,18c5.2,0,10.2-2.2,13.8-5.9
		C1072.2,626.4,1074.1,621.3,1073.8,616.1z"/>
	<path class="st0" d="M975.7,876l-0.8-0.6l-0.2-0.1c-8-5.5-18.9-4-25.2,3.5c-7.2,8.7-15,17.1-23,25.2
		c-34.5,34.5-74.7,61.6-119.4,80.5c-46.3,19.6-95.5,29.5-146.3,29.5c-50.7,0-99.9-9.9-146.3-29.5c-44.7-18.9-84.9-46-119.4-80.5
		c-34.5-34.5-61.6-74.7-80.5-119.4c-18.2-42.9-28-88.5-29.4-135.4c-0.3-10.3-8.6-18.4-18.9-18.4c-5.2,0-10,2-13.6,5.7
		c-3.6,3.7-5.5,8.6-5.4,13.7c1.5,51.6,12.3,101.7,32.3,149c20.8,49.3,50.7,93.5,88.6,131.5c38,38,82.2,67.8,131.5,88.6
		c51,21.6,105.2,32.5,161,32.5c55.8,0,110-10.9,161-32.5c49.3-20.8,93.5-50.7,131.5-88.6c8.8-8.8,17.3-18.1,25.3-27.7
		c3.3-4,4.8-9,4.3-14.1C982.3,883.8,979.7,879.1,975.7,876z"/>
</g>
<path class="st2" d="M811.3,607.3H704.6l75.4-75.4c7.1-7.1,7.1-18.7,0-25.8c-3.4-3.4-8-5.3-12.9-5.3c-4.9,0-9.5,1.9-12.9,5.3
	l-75.4,75.4V474.8c0-10.1-8.2-18.2-18.2-18.2s-18.2,8.2-18.2,18.2v106.7L566.8,506c-3.4-3.4-8-5.3-12.9-5.3s-9.5,1.9-12.9,5.3
	s-5.3,8-5.3,12.9s1.9,9.5,5.3,12.9l75.5,75.5H509.8c-10.1,0-18.2,8.2-18.2,18.2s8.2,18.2,18.2,18.2h106.7L541,719.2
	c-7.1,7.1-7.1,18.7,0,25.8c7.1,7.1,18.7,7.1,25.8,0l75.4-75.4v106.7c0,10.1,8.2,18.2,18.2,18.2s18.2-8.2,18.2-18.2V669.6l75.4,75.4
	c3.4,3.4,8,5.3,12.9,5.3c4.9,0,9.5-1.9,12.9-5.3c3.4-3.4,5.3-8,5.3-12.9s-1.9-9.5-5.3-12.9l-75.4-75.4h106.7
	c10.1,0,18.2-8.2,18.2-18.2S821.3,607.3,811.3,607.3z"/>
</svg>
