<?xml version="1.0" encoding="utf-8"?>
<!-- Generator: Adobe Illustrator 22.1.0, SVG Export Plug-In . SVG Version: 6.00 Build 0)  -->
<svg version="1.1" id="Layer_1" xmlns="http://www.w3.org/2000/svg" xmlns:xlink="http://www.w3.org/1999/xlink" x="0px" y="0px"
	 viewBox="0 0 1344.1 1269.7" style="enable-background:new 0 0 1344.1 1269.7;" xml:space="preserve">
<style type="text/css">
	.st0{fill:#20313F;}
	.st1{fill:#34495E;}
	.st2{fill:#27AE60;}
</style>
<g>
	<path class="st0" d="M1266.7,608.5c-3.7-70.4-19.4-138.9-46.8-203.7c-30.6-72.3-74.3-137.2-130-192.9S969.3,112.4,897,81.9
		c-74.8-31.6-154.3-47.7-236.2-47.7s-161.4,16-236.2,47.7c-72.3,30.6-137.2,74.3-192.9,130c-10.1,10.1-20,20.8-29.4,31.6
		c-3.3,3.8-5,9-4.5,14c0.5,5.1,3,9.6,7,12.8l0.1,0.1c7.8,6.1,19,5,25.5-2.5c8.8-10.2,18.1-20.2,27.7-29.7
		c52.3-52.3,113.2-93.4,181.1-122.1C509.4,86.4,584,71.3,660.9,71.3s151.5,15.1,221.7,44.8c67.8,28.7,128.8,69.8,181.1,122.1
		s93.4,113.3,122.1,181.1c25.7,60.8,40.5,125.1,44,191.2c0.5,9.9,8.7,17.7,18.6,17.7c5.1,0,9.9-2.1,13.5-5.8
		C1265.1,618.6,1266.9,613.6,1266.7,608.5z"/>
	<path class="st0" d="M1124.1,1003L1124.1,1003c-7.9-6.2-19.2-5-25.7,2.8c-11,13.1-22.7,25.9-34.8,38.1
		c-52.3,52.3-113.3,93.4-181.1,122.1c-70.2,29.7-144.8,44.8-221.7,44.8s-151.5-15.1-221.7-44.8c-67.8-28.7-128.8-69.8-181.1-122.1
		c-52.3-52.3-93.4-113.3-122.1-181.1c-27.5-65.1-42.5-134.1-44.5-205.2c-0.3-10.2-8.4-18.1-18.6-18.1c-5.1,0-9.8,2-13.3,5.6
		s-5.4,8.4-5.2,13.4c2.1,75.7,18.1,149.3,47.4,218.7c30.6,72.3,74.3,137.2,130,192.9c55.7,55.7,120.6,99.5,192.9,130
		c74.8,31.6,154.3,47.7,236.2,47.7s161.4-16,236.2-47.7c72.3-30.6,137.2-74.3,192.9-130c12.9-12.9,25.4-26.6,37.1-40.6
		c3.2-3.9,4.7-8.8,4.2-13.8C1130.6,1010.6,1128.1,1006.1,1124.1,1003z"/>
</g>
<g>
	<path class="st1" d="M319.3,303.9c46.1-46.1,99.8-81.8,159.7-106.1c57.9-23.5,119-35.4,181.7-35.4s123.9,11.9,181.7,35.4
		c51.8,21,99.2,50.7,140.9,88.2c7.5,6.7,18.7,6.6,26-0.2l0.5-0.5c3.7-3.7,5.8-8.9,5.6-14.1c-0.1-5.2-2.4-10.2-6.3-13.7
		c-45-40.6-96.3-72.6-152.3-95.4c-62.3-25.2-128.3-38.1-196-38.1l0,0c-67.7,0-133.7,12.8-196.2,38.2
		c-64.7,26.2-122.7,64.8-172.5,114.5c-49.8,49.8-88.3,107.8-114.5,172.5c-25.3,62.5-38.2,128.5-38.2,196.2c0,12.4,0.4,24.9,1.3,37.2
		c0.4,5.2,2.9,10.1,6.9,13.4c3.5,2.8,7.8,4.4,12.3,4.4c0.6,0,1.2,0,1.7-0.1l0.6-0.1c10.2-1.2,17.6-10.2,16.8-20.5
		c-0.8-11.4-1.2-23-1.2-34.4c0-62.7,11.9-123.9,35.4-181.7C237.5,403.8,273.2,350,319.3,303.9z"/>
	<path class="st1" d="M1180,588.1c-0.5-5.2-3-9.9-7-13.2s-9.1-4.7-14.3-4.2h-0.2c-10.4,1.3-17.7,10.4-16.8,20.8
		c1.3,14.4,2,29.1,2,43.7c0,62.7-11.9,123.9-35.4,181.7c-24.3,59.9-60,113.6-106.1,159.7c-46.1,46.1-99.8,81.8-159.7,106.1
		c-57.9,23.5-119,35.4-181.7,35.4s-123.9-11.9-181.7-35.4c-55.5-22.5-105.9-54.9-149.7-96.3c-7.6-7.2-19.4-7.1-26.8,0.4
		c-3.7,3.7-5.7,8.6-5.6,13.9c0.1,5.2,2.2,10.1,6,13.7c47.3,44.7,101.7,79.7,161.7,104c62.5,25.3,128.5,38.2,196.2,38.2l0,0
		c67.7,0,133.7-12.8,196.2-38.2c64.7-26.2,122.7-64.8,172.5-114.5c49.8-49.8,88.3-107.8,114.5-172.5
		c25.3-62.5,38.2-128.5,38.2-196.2C1182.1,619.6,1181.4,603.7,1180,588.1z"/>
</g>
<g>
	<path class="st0" d="M1073.8,616.1c-2.5-48-13.3-94.7-31.9-138.9c-20.8-49.3-50.7-93.5-88.6-131.5c-38-38-82.2-67.8-131.5-88.6
		c-51-21.6-105.2-32.5-161-32.5s-110,10.9-161,32.5c-49.3,20.8-93.5,50.7-131.5,88.6c-6.9,6.9-13.7,14.2-20.1,21.6
		c-3.4,3.9-5,9.1-4.5,14.2c0.5,4.9,2.9,9.5,6.6,12.6l0.6,0.5c7.9,6.2,19.3,5.1,26-2.5c5.8-6.7,12-13.3,18.3-19.6
		c34.5-34.5,74.7-61.6,119.4-80.5c46.3-19.6,95.5-29.5,146.3-29.5c50.7,0,99.9,9.9,146.3,29.5c44.7,18.9,84.9,46,119.4,80.5
		C961,407,988.1,447.2,1007,492c17,40.1,26.7,82.5,29,126.1c0.5,10.1,8.8,18,18.9,18c5.2,0,10.2-2.2,13.8-5.9
		C1072.2,626.4,1074.1,621.3,1073.8,616.1z"/>
	<path class="st0" d="M975.7,876l-0.8-0.6l-0.2-0.1c-8-5.5-18.9-4-25.2,3.5c-7.2,8.7-15,17.1-23,25.2
		c-34.5,34.5-74.7,61.6-119.4,80.5c-46.3,19.6-95.5,29.5-146.3,29.5c-50.7,0-99.9-9.9-146.3-29.5c-44.7-18.9-84.9-46-119.4-80.5
		s-61.6-74.7-80.5-119.4c-18.2-42.9-28-88.5-29.4-135.4c-0.3-10.3-8.6-18.4-18.9-18.4c-5.2,0-10,2-13.6,5.7s-5.5,8.6-5.4,13.7
		c1.5,51.6,12.3,101.7,32.3,149c20.8,49.3,50.7,93.5,88.6,131.5c38,38,82.2,67.8,131.5,88.6c51,21.6,105.2,32.5,161,32.5
		s110-10.9,161-32.5c49.3-20.8,93.5-50.7,131.5-88.6c8.8-8.8,17.3-18.1,25.3-27.7c3.3-4,4.8-9,4.3-14.1
		C982.3,883.8,979.7,879.1,975.7,876z"/>
</g>
<path class="st2" d="M811.3,607.3H704.6l75.4-75.4c7.1-7.1,7.1-18.7,0-25.8c-3.4-3.4-8-5.3-12.9-5.3s-9.5,1.9-12.9,5.3l-75.4,75.4
	V474.8c0-10.1-8.2-18.2-18.2-18.2s-18.2,8.2-18.2,18.2v106.7L566.8,506c-3.4-3.4-8-5.3-12.9-5.3s-9.5,1.9-12.9,5.3s-5.3,8-5.3,12.9
	s1.9,9.5,5.3,12.9l75.5,75.5H509.8c-10.1,0-18.2,8.2-18.2,18.2s8.2,18.2,18.2,18.2h106.7L541,719.2c-7.1,7.1-7.1,18.7,0,25.8
	s18.7,7.1,25.8,0l75.4-75.4v106.7c0,10.1,8.2,18.2,18.2,18.2s18.2-8.2,18.2-18.2V669.6L754,745c3.4,3.4,8,5.3,12.9,5.3
	s9.5-1.9,12.9-5.3c3.4-3.4,5.3-8,5.3-12.9s-1.9-9.5-5.3-12.9l-75.4-75.4h106.7c10.1,0,18.2-8.2,18.2-18.2S821.3,607.3,811.3,607.3z"
	/>
</svg>
