<?xml version="1.0" encoding="utf-8"?>
<!-- Generator: Adobe Illustrator 22.1.0, SVG Export Plug-In . SVG Version: 6.00 Build 0)  -->
<svg version="1.1" id="Layer_1" xmlns="http://www.w3.org/2000/svg" xmlns:xlink="http://www.w3.org/1999/xlink" x="0px" y="0px"
	 viewBox="0 0 1818.9 1678.9" style="enable-background:new 0 0 1818.9 1678.9;" xml:space="preserve">
<style type="text/css">
	.st0{fill:#20313F;}
	.st1{fill:#27AE60;}
	.st2{fill:#34495E;}
</style>
<g>
	<path class="st0" d="M169.4,1424.8H99.2V1615H70.4v-190.2H1.2v-22.7h168.3V1424.8z"/>
	<path class="st0" d="M236.9,1618.1c-22.7,0-40.4-7.3-53.1-21.8c-12.7-14.5-19.1-33.6-19.1-57.3v-6.4c0-22.7,6.6-41.5,19.7-56.4
		c13.1-14.9,29.1-22.3,48-22.3c21.1,0,37,6.6,47.6,19.7c10.6,13.2,15.9,30.7,15.9,52.5v15.2H194.6l-0.4,0.7
		c0,15.9,3.5,28.8,10.5,38.7c7,9.9,17.7,14.8,32.2,14.8c9.7,0,18.3-1.4,25.7-4.2c7.4-2.8,13.7-6.6,18.9-11.5l11.3,18.7
		c-5.7,5.5-13.1,10.1-22.4,13.8C261.1,1616.2,249.9,1618.1,236.9,1618.1z M232.3,1476.6c-10,0-18.3,3.9-24.9,11.6
		c-6.6,7.7-10.6,17.7-12.1,29.8l0.3,0.7H267v-2.3c0-11.5-2.8-21-8.5-28.5C252.9,1480.3,244.1,1476.6,232.3,1476.6z"/>
	<path class="st0" d="M381.1,1595.6c8.9,0,16.6-2.9,23.2-8.8c6.6-5.9,9.9-13.1,9.9-21.7h26l0.4,0.9c0.4,13.6-5.5,25.8-17.5,36.3
		c-12.1,10.6-26.1,15.9-42.1,15.9c-22.2,0-39.4-7.6-51.5-22.7c-12.1-15.1-18.1-33.9-18.1-56.4v-6.1c0-22.3,6.1-41.1,18.2-56.2
		c12.1-15.2,29.3-22.7,51.4-22.7c17.6,0,32.1,5.5,43.3,16.4c11.3,10.9,16.7,24.3,16.3,40.2l-0.3,0.9h-26.2c0-9.6-3.1-17.9-9.4-24.6
		c-6.3-6.8-14.2-10.2-23.8-10.2c-14.1,0-24.4,5.5-30.9,16.4c-6.5,11-9.7,24.2-9.7,39.8v6.1c0,15.9,3.2,29.3,9.6,40.2
		C356.4,1590.1,366.8,1595.6,381.1,1595.6z"/>
	<path class="st0" d="M493.9,1478c5.5-7.6,12.2-13.5,20.1-17.8c7.9-4.2,16.7-6.4,26.4-6.4c16.9,0,30,5.1,39.4,15.2
		c9.4,10.1,14.1,25.7,14.1,46.8v99.1h-28.8v-99.4c0-13.1-2.8-22.7-8.4-28.9c-5.6-6.2-14-9.4-25.1-9.4c-8.6,0-16,1.7-22.4,5
		c-6.3,3.4-11.5,8.1-15.4,14.1V1615h-28.8V1387h28.8V1478z"/>
	<path class="st0" d="M651.1,1456.8l2,23.5c5.3-8.4,11.9-14.9,19.8-19.5c7.9-4.6,17-6.9,27.1-6.9c17.1,0,30.3,5,39.6,15
		c9.4,10,14,25.4,14,46.3v99.8h-28.8v-99.3c0-13.9-2.8-23.8-8.3-29.7c-5.5-5.8-13.9-8.8-25.2-8.8c-8.9,0-16.4,1.8-22.6,5.3
		c-6.2,3.6-11.1,8.6-14.7,15V1615h-28.8v-158.2H651.1z"/>
	<path class="st0" d="M778.9,1534.5c0-23.4,6.3-42.7,19-57.8c12.7-15.2,29.9-22.7,51.6-22.7c21.9,0,39.3,7.6,52,22.7
		c12.7,15.1,19.1,34.4,19.1,57.9v3.2c0,23.6-6.3,42.9-19,57.9c-12.7,15-29.9,22.5-51.8,22.5c-21.8,0-39.1-7.5-51.8-22.6
		s-19.1-34.3-19.1-57.8V1534.5z M807.7,1537.7c0,16.8,3.5,30.6,10.6,41.5c7.1,10.9,17.6,16.4,31.5,16.4c13.7,0,24.2-5.5,31.3-16.4
		c7.1-10.9,10.7-24.8,10.7-41.5v-3.2c0-16.6-3.6-30.4-10.7-41.4c-7.2-11-17.7-16.5-31.5-16.5c-13.7,0-24.1,5.5-31.2,16.5
		c-7.1,11-10.6,24.8-10.6,41.4V1537.7z"/>
	<path class="st0" d="M1103.5,1586.4c-4.7,7.7-13.3,14.9-25.9,21.6c-12.6,6.7-28.5,10.1-47.7,10.1c-24.5,0-44.5-8.4-60.1-25.3
		c-15.6-16.9-23.4-38.7-23.4-65.5v-39c0-26.3,7.6-47.8,22.7-64.3c15.1-16.6,34.6-24.9,58.6-24.9c23.1,0,41.4,6.1,55,18.3
		c13.6,12.2,20.2,27.7,19.8,46.5l-0.4,0.9H1086c0-14.7-5.1-26.8-15.2-36.4c-10.1-9.6-24.5-14.3-43.1-14.3
		c-19.1,0-34.5,6.9-46.2,20.8c-11.7,13.8-17.5,31.6-17.5,53.2v39.3c0,22.2,6.1,40.4,18.3,54.7c12.2,14.2,28.1,21.3,47.7,21.3
		c14.9,0,27.1-2.2,36.5-6.7c9.5-4.5,16-9.7,19.7-15.6v-54.5h-57.3v-14.9h74.7V1586.4z"/>
	<path class="st0" d="M1216.6,1471.9l-12.4-0.9c-11,0-20.1,3.1-27.1,9.3c-7.1,6.2-12.1,14.7-15.1,25.5V1615h-17.5v-158.2h15.4
		l2.2,26.3v1.8c4.6-9.7,10.7-17.3,18.4-22.8c7.7-5.5,16.9-8.2,27.5-8.2c2.1,0,4.2,0.2,6.1,0.5c1.9,0.3,3.6,0.7,4.8,1.1
		L1216.6,1471.9z"/>
	<path class="st0" d="M1336.8,1615c-1.1-5.6-1.9-10.3-2.4-14.3c-0.5-4-0.8-8.1-0.8-12.3c-5.5,8.6-13.1,15.7-23,21.3
		c-9.8,5.6-21.2,8.4-33.9,8.4c-15.5,0-27.5-4.1-36-12.4c-8.5-8.2-12.8-19.4-12.8-33.6c0-14.1,6.2-25.6,18.6-34.4
		c12.4-8.8,28.5-13.2,48.2-13.2h38.9v-19.6c0-11.3-3.6-20.2-10.7-26.6s-17.3-9.6-30.3-9.6c-12,0-21.7,2.9-29,8.8
		c-7.4,5.8-11,13.2-11,22.1h-16.2l-0.3-0.9c-0.6-11.9,4.5-22.3,15.3-31.4c10.8-9,24.8-13.5,42.2-13.5c17.3,0,31.3,4.4,41.8,13.3
		c10.5,8.9,15.8,21.6,15.8,38.2v77.8c0,5.6,0.3,11,1,16.2c0.6,5.3,1.7,10.5,3.1,15.6H1336.8z M1278.6,1602.6
		c13.5,0,25.1-3.2,34.9-9.6c9.8-6.4,16.5-14.6,20-24.6v-30.3h-39c-14.2,0-26,3.4-35.2,10.2c-9.3,6.8-13.9,14.9-13.9,24.5
		c0,9,2.9,16.2,8.8,21.6C1260.2,1599.9,1268.3,1602.6,1278.6,1602.6z"/>
	<path class="st0" d="M1515.1,1540.3c0,23.7-5.4,42.6-16.1,56.6c-10.7,14.1-25.5,21.1-44.3,21.1c-11,0-20.7-2.1-29-6.3
		c-8.3-4.2-15.1-10.1-20.4-17.8v81.9h-17.5v-219h13.4l3.2,24.7c5.3-8.8,12.1-15.6,20.5-20.4c8.4-4.8,18.2-7.2,29.5-7.2
		c19,0,33.9,7.6,44.6,22.7c10.7,15.2,16.1,35.4,16.1,60.6V1540.3z M1497.5,1537.2c0-20.1-4-36.5-12-49.1c-8-12.7-19.7-19-35.1-19
		c-11.6,0-21.1,2.8-28.4,8.3c-7.4,5.6-12.9,12.8-16.7,21.6v76.6c4.1,8.6,9.9,15.3,17.4,20.2c7.5,4.9,16.9,7.4,28.1,7.4
		c15.3,0,26.9-5.8,34.9-17.3c7.9-11.5,11.9-26.8,11.9-45.8V1537.2z"/>
	<path class="st0" d="M1562.1,1483.7c5.4-9.5,12.4-16.8,21.1-22c8.7-5.2,18.9-7.8,30.6-7.8c16.7,0,29.5,5.2,38.4,15.5
		c8.9,10.3,13.4,26.4,13.4,48.1v97.5H1648v-97.8c0-17.2-3.4-29.5-10.2-36.9c-6.8-7.5-16.1-11.2-28-11.2c-12.3,0-22.4,3-30.3,9
		c-7.9,6-13.8,14-17.5,24V1615h-17.5V1387h17.5V1483.7z"/>
	<path class="st0" d="M1746.2,1572.2l5.6,18.9h0.9l47.8-134.2h19.6l-68.7,183.5c-4.1,10.7-9.4,19.8-15.9,27.3
		c-6.5,7.5-16.1,11.3-28.7,11.3c-2,0-4.5-0.2-7.5-0.7s-5.1-0.9-6.4-1.4l2-14.6c1.2,0.2,3,0.4,5.6,0.7c2.6,0.2,4.5,0.4,5.6,0.4
		c7.6,0,13.7-2.7,18.3-8.1c4.6-5.4,8.5-12.4,11.7-20.8l8.3-21.3l-61.1-156.1h19.4L1746.2,1572.2z"/>
</g>
<g>
	<path class="st0" d="M1516,574.3c-3.7-70.4-19.4-138.9-46.8-203.7c-30.6-72.3-74.3-137.2-130-192.9
		c-55.7-55.7-120.6-99.5-192.9-130C1071.4,16,992,0,910.1,0c-81.9,0-161.4,16-236.2,47.7C601.6,78.3,536.7,122,481,177.7
		c-10.1,10.1-20,20.8-29.4,31.6c-3.3,3.8-5,9-4.5,14c0.5,5.1,3,9.6,7,12.8l0.1,0.1c7.8,6.1,19,5,25.5-2.5
		c8.8-10.2,18.1-20.2,27.7-29.7c52.3-52.3,113.2-93.4,181.1-122.1c70.2-29.7,144.8-44.8,221.7-44.8s151.5,15.1,221.7,44.8
		c67.8,28.7,128.8,69.8,181.1,122.1c52.3,52.3,93.4,113.3,122.1,181.1c25.7,60.8,40.5,125.1,44,191.2c0.5,9.9,8.7,17.7,18.6,17.7
		c5.1,0,9.9-2.1,13.5-5.8C1514.4,584.4,1516.3,579.4,1516,574.3z"/>
	<path class="st0" d="M1373.4,968.8L1373.4,968.8c-7.9-6.2-19.2-5-25.7,2.8c-11,13.1-22.7,25.9-34.8,38.1
		c-52.3,52.3-113.3,93.4-181.1,122.1c-70.2,29.7-144.8,44.8-221.7,44.8s-151.5-15.1-221.7-44.8c-67.8-28.7-128.8-69.8-181.1-122.1
		c-52.3-52.3-93.4-113.3-122.1-181.1c-27.5-65.1-42.5-134.1-44.5-205.2c-0.3-10.2-8.4-18.1-18.6-18.1c-5.1,0-9.8,2-13.3,5.6
		c-3.5,3.6-5.4,8.4-5.2,13.4c2.1,75.7,18.1,149.3,47.4,218.7c30.6,72.3,74.3,137.2,130,192.9c55.7,55.7,120.6,99.5,192.9,130
		c74.8,31.6,154.3,47.7,236.2,47.7c81.9,0,161.4-16,236.2-47.7c72.3-30.6,137.2-74.3,192.9-130c12.9-12.9,25.4-26.6,37.1-40.6
		c3.2-3.9,4.7-8.8,4.2-13.8C1380,976.4,1377.4,971.9,1373.4,968.8z"/>
</g>
<g>
	<path class="st0" d="M1323.2,582c-2.5-48-13.3-94.7-31.9-138.9c-20.8-49.3-50.7-93.5-88.6-131.5c-38-38-82.2-67.8-131.5-88.6
		c-51-21.6-105.2-32.5-161-32.5c-55.8,0-110,10.9-161,32.5c-49.3,20.8-93.5,50.7-131.5,88.6c-6.9,6.9-13.7,14.2-20.1,21.6
		c-3.4,3.9-5,9.1-4.5,14.2c0.5,4.9,2.9,9.5,6.6,12.6l0.6,0.5c7.9,6.2,19.3,5.1,26-2.5c5.8-6.7,12-13.3,18.3-19.6
		c34.5-34.5,74.7-61.6,119.4-80.5c46.3-19.6,95.5-29.5,146.3-29.5c50.7,0,99.9,9.9,146.3,29.5c44.7,18.9,84.9,46,119.4,80.5
		c34.5,34.5,61.6,74.7,80.5,119.4c17,40.1,26.7,82.5,29,126.1c0.5,10.1,8.8,18,18.9,18c5.2,0,10.2-2.2,13.8-5.9
		C1321.6,592.2,1323.5,587.1,1323.2,582z"/>
	<path class="st0" d="M1225,841.8l-0.8-0.6l-0.2-0.1c-8-5.5-18.9-4-25.2,3.5c-7.2,8.7-15,17.1-23,25.2
		c-34.5,34.5-74.7,61.6-119.4,80.5c-46.3,19.6-95.5,29.5-146.3,29.5c-50.7,0-99.9-9.9-146.3-29.5c-44.7-18.9-84.9-46-119.4-80.5
		c-34.5-34.5-61.6-74.7-80.5-119.4c-18.2-42.9-28-88.5-29.4-135.4c-0.3-10.3-8.6-18.4-18.9-18.4c-5.2,0-10,2-13.6,5.7
		c-3.6,3.7-5.5,8.6-5.4,13.7c1.5,51.6,12.3,101.7,32.3,149c20.8,49.3,50.7,93.5,88.6,131.5c38,38,82.2,67.8,131.5,88.6
		c51,21.6,105.2,32.5,161,32.5c55.8,0,110-10.9,161-32.5c49.3-20.8,93.5-50.7,131.5-88.6c8.8-8.8,17.3-18.1,25.3-27.7
		c3.3-4,4.8-9,4.3-14.1C1231.7,849.7,1229.1,845,1225,841.8z"/>
</g>
<path class="st1" d="M1070.2,578.3H963.5l75.4-75.4c7.1-7.1,7.1-18.7,0-25.8c-3.4-3.4-8-5.3-12.9-5.3c-4.9,0-9.5,1.9-12.9,5.3
	l-75.4,75.4V445.8c0-10.1-8.2-18.2-18.2-18.2s-18.2,8.2-18.2,18.2v106.7L825.7,477c-3.4-3.4-8-5.3-12.9-5.3s-9.5,1.9-12.9,5.3
	s-5.3,8-5.3,12.9s1.9,9.5,5.3,12.9l75.5,75.5H768.7c-10.1,0-18.2,8.2-18.2,18.2s8.2,18.2,18.2,18.2h106.7l-75.4,75.4
	c-7.1,7.1-7.1,18.7,0,25.8c7.1,7.1,18.7,7.1,25.8,0l75.4-75.4v106.7c0,10.1,8.2,18.2,18.2,18.2s18.2-8.2,18.2-18.2V640.6l75.4,75.4
	c3.4,3.4,8,5.3,12.9,5.3c4.9,0,9.5-1.9,12.9-5.3c3.4-3.4,5.3-8,5.3-12.9s-1.9-9.5-5.3-12.9l-75.4-75.4h106.7
	c10.1,0,18.2-8.2,18.2-18.2S1080.2,578.3,1070.2,578.3z"/>
<g>
	<path class="st2" d="M576.1,271.6c45-45,97.5-79.9,156-103.6c56.5-22.9,116.2-34.5,177.5-34.5c61.3,0,121,11.6,177.5,34.5
		c50.6,20.5,96.9,49.5,137.6,86.2c7.7,7,19.5,6.7,26.9-0.7c3.8-3.8,5.8-8.9,5.7-14.3c-0.1-5.3-2.5-10.5-6.5-14v0
		c-44.1-39.7-94.3-71.1-149.1-93.3c-61.2-24.8-125.8-37.4-192.2-37.4c0,0,0,0,0,0c-66.3,0-131,12.6-192.2,37.4
		c-63.4,25.7-120.2,63.4-169,112.2c-48.7,48.7-86.5,105.6-112.2,169c-24.8,61.2-37.4,125.8-37.4,192.2c0,12.1,0.4,24.3,1.3,36.3
		c0.4,5.3,3,10.3,7.1,13.7c3.5,2.9,7.8,4.5,12.3,4.5c0.8,0,1.5,0,2.3-0.1l0.1,0c10.3-1.3,17.8-10.4,17.1-20.8
		c-0.8-11.1-1.2-22.4-1.2-33.6c0-61.3,11.6-121,34.5-177.5C496.2,369.1,531.1,316.6,576.1,271.6z"/>
	<path class="st2" d="M1419,570.3c-0.4-5.3-3-10.3-7.1-13.7c-4.1-3.4-9.3-4.9-14.7-4.3l-0.1,0c-10.3,1.3-17.8,10.4-17.1,20.8
		c0.8,11.1,1.2,22.4,1.2,33.6c0,61.3-11.6,121-34.5,177.5c-23.7,58.5-58.6,111-103.6,156c-45,45-97.5,79.9-156,103.6
		c-56.5,22.9-116.2,34.5-177.5,34.5c-61.3,0-121-11.6-177.5-34.5c-50.6-20.5-96.9-49.5-137.6-86.2c-7.7-7-19.5-6.7-26.9,0.7
		c-3.8,3.8-5.8,8.9-5.7,14.3c0.1,5.3,2.5,10.5,6.5,14c44.1,39.7,94.3,71.1,149.1,93.3c61.2,24.8,125.8,37.4,192.2,37.4
		c66.3,0,131-12.6,192.2-37.4c63.4-25.7,120.2-63.4,169-112.2c48.7-48.7,86.5-105.6,112.2-169c24.8-61.2,37.4-125.8,37.4-192.2
		C1420.3,594.6,1419.9,582.3,1419,570.3z"/>
</g>
</svg>
